<svg xmlns="http://www.w3.org/2000/svg" width="1400" height="900" viewBox="0 0 1400 900" fill="none">
  <defs>
    <linearGradient id="g" x1="250" y1="120" x2="1150" y2="820" gradientUnits="userSpaceOnUse">
      <stop stop-color="#F97316"/>
      <stop offset="0.45" stop-color="#DB2777"/>
      <stop offset="1" stop-color="#6366F1"/>
    </linearGradient>
    <radialGradient id="rg" cx="0" cy="0" r="1" gradientUnits="userSpaceOnUse"
      gradientTransform="translate(700 460) rotate(90) scale(520 720)">
      <stop stop-color="rgba(255,255,255,0.22)"/>
      <stop offset="1" stop-color="rgba(255,255,255,0)"/>
    </radialGradient>
    <filter id="blur" x="-20%" y="-20%" width="140%" height="140%">
      <feGaussianBlur stdDeviation="2.2"/>
    </filter>
    <filter id="softGlow" x="-30%" y="-30%" width="160%" height="160%">
      <feGaussianBlur in="SourceGraphic" stdDeviation="10" result="b"/>
      <feColorMatrix in="b" type="matrix" values="
        1 0 0 0 0
        0 1 0 0 0
        0 0 1 0 0
        0 0 0 0.55 0" result="c"/>
      <feMerge>
        <feMergeNode in="c"/>
        <feMergeNode in="SourceGraphic"/>
      </feMerge>
    </filter>
  </defs>

  <!-- Subtle spotlight so the silhouette reads on dark backgrounds -->
  <ellipse cx="700" cy="480" rx="640" ry="480" fill="url(#rg)"/>

  <!-- Minimal romantic silhouette (filled, not line art). Designed as a watermark. -->
  <g opacity="0.36" filter="url(#softGlow)">
    <!-- Bodies -->
    <path
      d="M520 720c-8-98 12-174 60-222 38-38 90-52 132-45 47 8 82 39 100 82 14 33 14 76 1 126-10 37-21 62-28 78H520z"
      fill="url(#g)"
    />
    <path
      d="M880 720c18-88 12-158-18-208-28-47-77-77-131-81-56-4-108 21-140 67-30 43-38 101-24 177 4 20 10 35 14 45H880z"
      fill="url(#g)"
      opacity="0.92"
    />

    <!-- Heads -->
    <ellipse cx="635" cy="400" rx="58" ry="64" fill="url(#g)"/>
    <ellipse cx="780" cy="392" rx="62" ry="70" fill="url(#g)" opacity="0.95"/>

    <!-- Hair / shoulders shaping (soften edges) -->
    <path
      d="M575 420c-38 42-55 92-50 148 5 54 20 98 36 132h-42c-10-36-18-77-18-124 0-73 24-132 74-182z"
      fill="url(#g)" opacity="0.7" filter="url(#blur)"
    />

    <!-- Arms (hug) -->
    <path
      d="M566 532c78 40 132 58 192 60 58 2 108-10 176-44 20-10 42-8 58 6 17 15 22 38 12 58-10 22-26 36-48 46-74 34-136 49-210 47-76-2-142-24-232-73-18-10-28-30-24-50 4-22 20-40 42-46 12-4 24-2 34-4z"
      fill="url(#g)" opacity="0.95"
    />

    <!-- Heart -->
    <path
      d="M700 468c22-30 56-30 78-10 24 22 26 62 0 90-20 22-55 46-78 62-23-16-58-40-78-62-26-28-24-68 0-90 22-20 56-20 78 10z"
      fill="url(#g)" opacity="0.9"
    />
  </g>
</svg>

